<svg xmlns="http://www.w3.org/2000/svg" height="24px" viewBox="0 -960 960 960" width="24px" fill="#00ccff"><path d="M913.18-40.36 738.51-215.04H317.48q-37.58 0-63.42-25.88-25.84-25.89-25.84-63.54v-64.71h441.8q37.41 0 63.34-25.84 25.92-25.84 25.92-63.42v-278.21h64.48q37.65 0 63.53 25.89 25.89 25.89 25.89 63.53v606.86ZM136.24-493.49l32.28-31.61h434.84v-304.69H136.24v336.3ZM46.82-259.22v-570.57q0-37.65 25.89-63.53 25.88-25.89 63.53-25.89h467.12q37.41 0 63.33 25.89 25.93 25.88 25.93 63.53v304.69q0 37.58-25.93 63.42-25.92 25.84-63.33 25.84H223.51L46.82-259.22Zm89.42-265.88v-304.69 304.69Z"/></svg>